<?xml version="1.0" encoding="utf-8"?>
<!-- Generator: Adobe Illustrator 24.0.2, SVG Export Plug-In . SVG Version: 6.00 Build 0)  -->
<svg version="1.1" id="Warstwa_1" xmlns="http://www.w3.org/2000/svg" xmlns:xlink="http://www.w3.org/1999/xlink" x="0px" y="0px"
	 viewBox="0 0 36 36" style="enable-background:new 0 0 36 36;" xml:space="preserve">
<style type="text/css">
	.st0{fill:#7C8792;}
	.st1{fill:none;}
	.st2{fill:#FFFFFF;}
</style>
<circle class="st0" cx="18" cy="18" r="17.7"/>
<g>
	<path class="st1" d="M11.1,22.9c0.8-0.2,1.5-0.1,2.3,0.4c3.1,1.9,6.3,1.9,9.4,0c0.7-0.5,1.5-0.6,2.3-0.4c2.7,0.7,4.8,2.1,6.3,4.4
		c1.8-2.6,2.9-5.8,2.9-9.3C34.2,9,27,1.8,18,1.8S1.8,9,1.8,18c0,3.5,1.1,6.7,2.9,9.3C6.2,25,8.4,23.6,11.1,22.9z M18,5.8
		c5.4,0.1,8.2,4.4,8.2,8.2c-0.1,4.5-3.8,8.2-8.3,8.1c-5-0.1-8.2-4.1-8.1-8.4C9.9,9.5,13.7,5.7,18,5.8z"/>
	<path class="st2" d="M25,22.9c-0.8-0.2-1.5-0.1-2.3,0.4c-3.1,1.9-6.3,1.9-9.4,0c-0.7-0.5-1.5-0.6-2.3-0.4c-2.7,0.7-4.8,2.1-6.3,4.4
		c2.9,4.2,7.8,6.9,13.3,6.9c5.5,0,10.3-2.7,13.3-6.9C29.8,25,27.7,23.6,25,22.9z"/>
	<path class="st2" d="M17.9,22.2c4.5,0.1,8.2-3.6,8.3-8.1c0.1-3.8-2.8-8.1-8.2-8.2c-4.3-0.1-8.1,3.7-8.2,7.9
		C9.7,18.1,13,22.1,17.9,22.2z"/>
</g>
</svg>
,6.1-2.8,14.5,3.3,18.8c1.7,1.2,41.5,28.9,91.3,41.7
			c23.3,8.3,25.9,33.2,26.6,56c0,0.9,0,1.7,0.1,2.5c0.1,9-0.5,22.9-2.1,30.9c-16.2,9.2-79.7,41-176.3,41
			c-96.2,0-160.1-31.9-176.4-41.1c-1.6-8-2.3-21.9-2.1-30.9c0-0.8,0.1-1.6,0.1-2.5c0.7-22.8,3.3-47.7,26.6-56
			c49.8-12.8,89.6-40.6,91.3-41.7c6.1-4.3,7.6-12.7,3.3-18.8c-4.3-6.1-12.7-7.6-18.8-3.3c-0.4,0.3-37.7,26.3-83,37.8
			c-0.4,0.1-0.7,0.2-1,0.3c-43.4,14.9-44.7,61.2-45.3,80.9c0,0.9,0,1.7-0.1,2.5c0,0.1,0,0.2,0,0.3c-0.1,5.2-0.2,31.9,5.1,45.3
			c1,2.6,2.8,4.8,5.2,6.3c3,2,74.9,47.8,195.2,47.8s192.2-45.9,195.2-47.8c2.3-1.5,4.2-3.7,5.2-6.3
			C447,415.5,446.9,388.8,446.8,383.6z"/>
	</g>
</g>
<g>
</g>
<g>
</g>
<g>
</g>
<g>
</g>
<g>
</g>
<g>
</g>
<g>
</g>
<g>
</g>
<g>
</g>
<g>
</g>
<g>
</g>
<g>
</g>
<g>
</g>
<g>
</g>
<g>
</g>
</svg>
