<?xml version="1.0" encoding="utf-8"?>
<!-- Generator: Adobe Illustrator 24.0.2, SVG Export Plug-In . SVG Version: 6.00 Build 0)  -->
<svg version="1.1" id="Warstwa_1" xmlns="http://www.w3.org/2000/svg" xmlns:xlink="http://www.w3.org/1999/xlink" x="0px" y="0px"
	 viewBox="0 0 36 35.9" style="enable-background:new 0 0 36 35.9;" xml:space="preserve">
<style type="text/css">
	.st0{fill:#7B8691;}
	.st1{fill:none;}
	.st2{fill:#FFFFFF;}
</style>
<title>item-nmt</title>
<circle class="st0" cx="18" cy="17.9" r="17.7"/>
<g>
	<path class="st1" d="M11.1,22.8c0.8-0.2,1.5-0.1,2.3,0.4c3.1,1.9,6.3,1.9,9.4,0c0.7-0.5,1.5-0.6,2.3-0.4c2.7,0.7,4.8,2.1,6.3,4.4
		c1.8-2.6,2.9-5.8,2.9-9.3c0-9-7.3-16.2-16.2-16.2S1.8,8.9,1.8,17.9c0,3.5,1.1,6.7,2.9,9.3C6.2,24.9,8.4,23.4,11.1,22.8z M18,5.7
		c5.4,0.1,8.2,4.4,8.2,8.2c-0.1,4.5-3.8,8.2-8.3,8.1c-5-0.1-8.2-4.1-8.1-8.4C9.9,9.4,13.7,5.6,18,5.7z"/>
	<path class="st2" d="M25,22.8c-0.8-0.2-1.5-0.1-2.3,0.4c-3.1,1.9-6.3,1.9-9.4,0c-0.7-0.5-1.5-0.6-2.3-0.4c-2.7,0.7-4.8,2.1-6.3,4.4
		c3,4.2,7.8,6.9,13.3,6.9s10.3-2.7,13.3-6.9C29.8,24.9,27.7,23.4,25,22.8z"/>
	<path class="st2" d="M17.9,22.1c4.5,0.1,8.2-3.6,8.3-8.1c0.1-3.8-2.8-8.1-8.2-8.2c-4.3-0.1-8.1,3.7-8.2,7.9
		C9.7,17.9,13,22,17.9,22.1z"/>
</g>
</svg>
