<svg id="icons" enable-background="new 0 0 64 64" height="512" viewBox="0 0 64 64" width="512" xmlns="http://www.w3.org/2000/svg"><g><g><path d="m49.5 58.003-40-.006c-.553 0-1-.448-1-1v-55.994c0-.552.447-1 1-1h34c.265 0 .52.105.707.292l6 5.994c.188.188.293.442.293.708v50.006c0 .266-.105.52-.293.707s-.441.293-.707.293zm-39-2.006 38 .006v-48.591l-5.414-5.409h-32.586z"/></g><g><path d="m46.503 61-40-.006c-.553 0-1-.448-1-1v-55.994c0-.552.447-1 1-1h2.997c.553 0 1 .448 1 1s-.447 1-1 1h-1.997v53.994l38 .006v-2.003c0-.553.447-1 1-1s1 .447 1 1v3.003c0 .266-.105.52-.293.707s-.441.293-.707.293z"/></g><g><path d="m43.5 63.997-40-.006c-.553 0-1-.448-1-1v-55.994c0-.552.447-1 1-1h2.997c.553 0 1 .448 1 1s-.447 1-1 1h-1.997v53.994l38 .006v-2.003c0-.553.447-1 1-1s1 .447 1 1v3.003c0 .266-.105.52-.293.707s-.441.293-.707.293z"/></g><g><path d="m49.5 7.997h-6c-.553 0-1-.448-1-1s.447-1 1-1h6c.553 0 1 .448 1 1s-.447 1-1 1z"/></g><g><path d="m43.5 7.997c-.553 0-1-.448-1-1v-5.994c0-.552.447-1 1-1s1 .448 1 1v5.994c0 .552-.447 1-1 1z"/></g><g><g><path d="m57.5 16.993c-.553 0-1-.448-1-1 0-.551-.448-1-1-1s-1 .449-1 1c0 .552-.447 1-1 1s-1-.448-1-1c0-1.654 1.346-3 3-3s3 1.346 3 3c0 .552-.447 1-1 1z"/></g><g><path d="m53.5 50.994c-.553 0-1-.447-1-1v-34.001c0-.552.447-1 1-1s1 .448 1 1v34.001c0 .553-.447 1-1 1z"/></g><g><path d="m57.5 50.994c-.553 0-1-.447-1-1v-34.001c0-.552.447-1 1-1s1 .448 1 1v34.001c0 .553-.447 1-1 1z"/></g><g><path d="m55.501 53.994c-.323 0-.641-.156-.833-.445l-2-3c-.307-.46-.183-1.08.277-1.387.461-.306 1.08-.183 1.387.277l2 3c.307.46.183 1.08-.277 1.387-.171.113-.364.168-.554.168z"/></g><g><path d="m55.499 53.994c-.19 0-.383-.055-.554-.168-.46-.307-.584-.927-.277-1.387l2-3c.305-.46.925-.583 1.387-.277.46.307.584.927.277 1.387l-2 3c-.192.289-.51.445-.833.445z"/></g><g><path d="m55.5 54.994c-.553 0-1-.447-1-1v-1c0-.553.447-1 1-1s1 .447 1 1v1c0 .553-.447 1-1 1z"/></g><g><path d="m57.5 48.994h-4c-.553 0-1-.447-1-1s.447-1 1-1h4c.553 0 1 .447 1 1s-.447 1-1 1z"/></g><g><path d="m60.5 19.993c-.553 0-1-.448-1-1 0-.551-.448-1-1-1-.553 0-1-.448-1-1s.447-1 1-1c1.654 0 3 1.346 3 3 0 .552-.447 1-1 1z"/></g><g><path d="m60.5 31.993c-.553 0-1-.448-1-1v-12c0-.552.447-1 1-1s1 .448 1 1v12c0 .552-.447 1-1 1z"/></g><g><path d="m58.5 17.993h-1c-.553 0-1-.448-1-1s.447-1 1-1h1c.553 0 1 .448 1 1s-.447 1-1 1z"/></g><g><path d="m57.5 26.993h-4c-.553 0-1-.448-1-1s.447-1 1-1h4c.553 0 1 .448 1 1s-.447 1-1 1z"/></g></g><g><g><path d="m42.5 33h-26c-.553 0-1-.448-1-1s.447-1 1-1h26c.553 0 1 .448 1 1s-.447 1-1 1z"/></g><g><path d="m42.5 28.998h-26c-.553 0-1-.448-1-1s.447-1 1-1h26c.553 0 1 .448 1 1s-.447 1-1 1z"/></g><g><path d="m42.5 37.001h-26c-.553 0-1-.447-1-1s.447-1 1-1h26c.553 0 1 .447 1 1s-.447 1-1 1z"/></g><g><path d="m42.5 41.001h-26c-.553 0-1-.447-1-1s.447-1 1-1h26c.553 0 1 .447 1 1s-.447 1-1 1z"/></g><g><path d="m29.5 45h-13c-.553 0-1-.447-1-1s.447-1 1-1h13c.553 0 1 .447 1 1s-.447 1-1 1z"/></g><g><path d="m42.5 50.997h-7c-.553 0-1-.447-1-1s.447-1 1-1h7c.553 0 1 .447 1 1s-.447 1-1 1z"/></g><g><path d="m37.5 52.997c-.553 0-1-.447-1-1v-4c0-.553.447-1 1-1s1 .447 1 1v4c0 .553-.447 1-1 1z"/></g><g><path d="m37.499 52.997c-.209 0-.419-.065-.599-.2-.442-.331-.532-.958-.2-1.399l3-4c.331-.442.959-.531 1.399-.2.442.331.532.958.2 1.399l-3 4c-.195.262-.495.4-.8.4z"/></g><g><path d="m40.5 52.997c-.553 0-1-.447-1-1v-4c0-.553.447-1 1-1s1 .447 1 1v4c0 .553-.447 1-1 1z"/></g></g><g><g><path d="m21.502 15.001c-1.654 0-3-1.346-3-3s1.346-3 3-3 3 1.346 3 3-1.346 3-3 3zm0-4c-.552 0-1 .449-1 1s.448 1 1 1 1-.449 1-1-.448-1-1-1z"/></g><g><path d="m21.502 11.001c-.553 0-1-.448-1-1v-3c0-.552.447-1 1-1s1 .448 1 1v3c0 .553-.447 1-1 1z"/></g><g><path d="m16.502 24.002c-.132 0-.266-.026-.396-.083-.507-.219-.74-.807-.521-1.314l3.999-9.27c.219-.506.803-.744 1.314-.522.507.219.74.807.521 1.314l-3.999 9.27c-.162.379-.53.605-.918.605z"/></g><g><path d="m26.506 24.002c-.388 0-.756-.226-.919-.604l-4.003-9.27c-.219-.507.015-1.096.521-1.314.506-.221 1.096.015 1.314.521l4.003 9.27c.219.507-.015 1.096-.521 1.314-.129.057-.263.083-.395.083z"/></g><g><path d="m25.501 19.001h-7.999c-.553 0-1-.448-1-1s.447-1 1-1h7.999c.553 0 1 .448 1 1s-.447 1-1 1z"/></g></g></g></svg>