<svg xmlns="http://www.w3.org/2000/svg" viewBox="0 0 225.91 40.74"><title>logo2</title><g id="Layer_2" data-name="Layer 2"><g id="Layer_1-2" data-name="Layer 1"><path d="M0,33.09,11.09,7.65h14L28.32,22l6.29-14.3H45.55L34.42,33.09H20.5l-3.22-14.3L11,33.09Z"/><path d="M96.94,24.74a2.09,2.09,0,0,0-.17-.79.64.64,0,0,0-.65-.41H84.6a6.88,6.88,0,0,1-3.12-.7,8,8,0,0,1-3.89-4.15,6.7,6.7,0,0,1-.53-2.54,5.63,5.63,0,0,1,.79-2.62,12.81,12.81,0,0,1,2.06-2.78A12.11,12.11,0,0,1,82.8,8.54,6.65,6.65,0,0,1,86,7.65h29.38a40.32,40.32,0,0,1-3,3.26,44.47,44.47,0,0,1-3.79,3.26h-19a1.27,1.27,0,0,0-1.1.72,2.46,2.46,0,0,0-.43,1.15v.24s.07.1.22.22l.36.26a2.58,2.58,0,0,0,.67.36,3.33,3.33,0,0,0,.48.17h10.94a6.39,6.39,0,0,1,5.38,2.62,8,8,0,0,1,1.2,2.42,8.49,8.49,0,0,1,.38,2.4V25a6.06,6.06,0,0,1-.7,2.66,10.69,10.69,0,0,1-1.82,2.62,10.2,10.2,0,0,1-2.59,2,6.24,6.24,0,0,1-3,.79H70.2a14.18,14.18,0,0,1,1.18-1.54q.89-1.05,1.9-2.14t1.87-1.92q.86-.84,1.06-.84H95.78q.86,0,1-.43a2.87,2.87,0,0,0,.14-.91v-.58Z"/><path d="M150.79,19.32a13.73,13.73,0,0,1-2.26,5.18,18.83,18.83,0,0,1-4.27,4.39,22,22,0,0,1-5.74,3,19.42,19.42,0,0,1-6.65,1.15h-6.72a37.44,37.44,0,0,1-5.88-.43,15.17,15.17,0,0,1-4.68-1.46,7.78,7.78,0,0,1-3.07-2.81,8.31,8.31,0,0,1-1.1-4.46q0-.58,0-1.2t.14-1.3a12.68,12.68,0,0,1,2.11-5.06,19.68,19.68,0,0,1,4.15-4.42,21.49,21.49,0,0,1,5.47-3.12,16.4,16.4,0,0,1,6-1.18H137a31.23,31.23,0,0,1,5.88.5,14.2,14.2,0,0,1,4.44,1.56,7.51,7.51,0,0,1,2.81,2.76,8,8,0,0,1,1,4.06q0,.67,0,1.34A8.66,8.66,0,0,1,150.79,19.32Zm-29.33,1.44a.64.64,0,0,0,0,.34v.29a4.49,4.49,0,0,0,.41,1.8,6.52,6.52,0,0,0,1.08,1.7,5.37,5.37,0,0,0,1.61,1.25,4.21,4.21,0,0,0,1.94.48h4.8a5.13,5.13,0,0,0,1.56-.41A14.82,14.82,0,0,0,135,25.12a18.6,18.6,0,0,0,2.21-1.51A7.19,7.19,0,0,0,138.84,22a3.5,3.5,0,0,0,.43-.6l.24-.46.19-.48a2.24,2.24,0,0,1,.14-.43c0-.26.06-.52.07-.79s0-.55,0-.84a7.15,7.15,0,0,0-.17-1.54,3.15,3.15,0,0,0-.67-1.37,3.48,3.48,0,0,0-1.42-1,6.49,6.49,0,0,0-2.35-.36h-5.62a5.67,5.67,0,0,0-2,.41,11,11,0,0,0-2.11,1.08,13.59,13.59,0,0,0-1.92,1.51,9.25,9.25,0,0,0-1.42,1.66,10.1,10.1,0,0,0-.55,1.08A3.36,3.36,0,0,0,121.46,20.76Z"/><path d="M159.14,7.65H192a12,12,0,0,1-1.32,1.75q-.94,1.08-2,2.14a22.49,22.49,0,0,1-2.09,1.82,3.05,3.05,0,0,1-1.49.77H167.35L164,21.67l5.47-4.42h13.3l-8.21,6.48H163.13L159,33.09h-11Z"/><path d="M192.84,33.09l8.3-19h-10.9v0a4.83,4.83,0,0,1,.84-1.06q.79-.86,1.87-1.92t2.21-2a12.15,12.15,0,0,1,1.9-1.42h28.85a12,12,0,0,1-1.32,1.75q-.94,1.08-2,2.14a22.49,22.49,0,0,1-2.09,1.82,3.05,3.05,0,0,1-1.49.77h-6.77l-8.3,19Z"/><polygon points="60.69 0 42.08 40.74 54.37 40.74 72.98 0 60.69 0"/></g></g></svg>