<svg xmlns="http://www.w3.org/2000/svg" viewBox="0 0 187.42 59.23"><title>Title</title><g id="Layer_2" data-name="Layer 2"><g id="Layer_1-2" data-name="Layer 1"><path d="M0,3.38A5.29,5.29,0,0,1,2.37,1.66,9.3,9.3,0,0,1,5.2,1.13a9.6,9.6,0,0,1,2.72.28,8.58,8.58,0,0,1,2,.75L16.69,18,21.75,2.67a2.66,2.66,0,0,1,1.31-1,7.59,7.59,0,0,1,2-.47,13.76,13.76,0,0,1,2.27,0,16.37,16.37,0,0,1,2.13.26,7.11,7.11,0,0,1,1.62.49q.66.31.7.59L33.7,36.75A5.89,5.89,0,0,1,31,39.4a7.66,7.66,0,0,1-3.14.66,7,7,0,0,1-2.77-.56,3.15,3.15,0,0,1-1.5-1.05,5.12,5.12,0,0,1-.09-1.12q0-1.12-.07-2.79t-.07-3.59q0-1.92-.07-3.59t0-2.77a5,5,0,0,0-.07-1.1,5.63,5.63,0,0,0-.33,1.1q-.28,1.1-.66,2.77t-.82,3.59q-.45,1.92-.82,3.59t-.66,2.79a5.87,5.87,0,0,1-.33,1.13,7,7,0,0,1-1.69,1,2,2,0,0,1-2-.49L11,24.52l.23,14.58a5.51,5.51,0,0,1-2,1.41,7,7,0,0,1-2.86.63,8,8,0,0,1-3.16-.63A6.77,6.77,0,0,1,.38,38.11Z"/><path d="M43,39.28,34,14.39a7.24,7.24,0,0,1,1.64-1.59,10.43,10.43,0,0,1,2.72-1.5,7,7,0,0,1,3.12-.42,4.17,4.17,0,0,1,2.84,1.55l3.33,18.09,5.44-18.42a8.3,8.3,0,0,1,2.39-.52,11.85,11.85,0,0,1,3,.09,6.67,6.67,0,0,1,2.6,1,2.53,2.53,0,0,1,1.22,2L47.39,57.84a6.13,6.13,0,0,1-3.3,1.31A13.75,13.75,0,0,1,40.41,59a12.69,12.69,0,0,1-3.12-.91,4.26,4.26,0,0,1-1.62-1Z"/><path d="M64.36,3.8a4.53,4.53,0,0,1,1.92-1.71,7.33,7.33,0,0,1,2.55-.7,8.77,8.77,0,0,1,2.7.19,6.92,6.92,0,0,1,2.34,1l-.37,11.2L83.34,2.86a7.51,7.51,0,0,1,3.3-1,3.74,3.74,0,0,1,2.16.56A3.37,3.37,0,0,1,90,3.91a7.34,7.34,0,0,1,.52,1.92,8.28,8.28,0,0,1,0,1.73,2.32,2.32,0,0,1-.21,1L78.7,20.86,90,34.22a4,4,0,0,1-.42,2.44,5,5,0,0,1-1.5,1.64,6.52,6.52,0,0,1-2.09,1,11.55,11.55,0,0,1-2.16.38,7,7,0,0,1-1.76-.07q-.75-.14-.84-.42L73.13,28.36,73.92,39a8.3,8.3,0,0,1-1.22.52,11.91,11.91,0,0,1-1.83.47,13.64,13.64,0,0,1-2.13.21A8,8,0,0,1,66.68,40,4.63,4.63,0,0,1,65,39.23a2.5,2.5,0,0,1-.94-1.5Z"/><path d="M92.2,12.38a6.31,6.31,0,0,1,2.27-1.12,9.67,9.67,0,0,1,2.91-.4,7.34,7.34,0,0,1,2.72.54,3.39,3.39,0,0,1,1.8,1.64l.19,24.19a2.89,2.89,0,0,1-1.76,1.71,7.63,7.63,0,0,1-2.88.54,9.08,9.08,0,0,1-3-.49,4.35,4.35,0,0,1-2.09-1.34Zm5.63-3.47a6.39,6.39,0,0,1-3-.7,4.15,4.15,0,0,1-1.66-1.62,3.53,3.53,0,0,1-.4-2.09,4.22,4.22,0,0,1,.82-2.09A5.82,5.82,0,0,1,95.51.77a6.92,6.92,0,0,1,3-.77,3.08,3.08,0,0,1,1.92.68,3.72,3.72,0,0,1,1.1,1.59,5.09,5.09,0,0,1,.28,2.09,6,6,0,0,1-.52,2.11A4.39,4.39,0,0,1,100,8.13,3.83,3.83,0,0,1,97.83,8.91Z"/><path d="M104.06,30.38a37,37,0,0,1,.12-5.41,32.77,32.77,0,0,1,.89-5.18,17.79,17.79,0,0,1,1.71-4.34,8,8,0,0,1,2.58-2.86,5.27,5.27,0,0,1,3.45-.77,9.71,9.71,0,0,1,4.43,1.92l0-10.08q-.09-.42.52-.91a6.38,6.38,0,0,1,1.57-.89,11.56,11.56,0,0,1,2.11-.63,7.49,7.49,0,0,1,2.18-.14,4.17,4.17,0,0,1,1.8.56,2.06,2.06,0,0,1,1,1.45V37.88a5.94,5.94,0,0,1-2.62,1.71,8.56,8.56,0,0,1-2.81.4,9.79,9.79,0,0,1-2.46-.37,6.2,6.2,0,0,1-1.52-.61V35.72q-2.39,3.28-4.64,4a4.73,4.73,0,0,1-4-.37,7.72,7.72,0,0,1-2.91-3.52A14.47,14.47,0,0,1,104.06,30.38Zm7.22-5a6.65,6.65,0,0,0,.87,3.68q.82,1.15,1.78.84t1.78-2.09a12.46,12.46,0,0,0,.82-5.06,3.45,3.45,0,0,0-.8-2,1.82,1.82,0,0,0-1.62-.73,2.56,2.56,0,0,0-1.73,1.31A9.26,9.26,0,0,0,111.28,25.41Z"/><path d="M127.83,30.38a37,37,0,0,1,.12-5.41,32.77,32.77,0,0,1,.89-5.18,17.79,17.79,0,0,1,1.71-4.34,8,8,0,0,1,2.58-2.86,5.27,5.27,0,0,1,3.45-.77A9.71,9.71,0,0,1,141,13.73l0-10.08q-.09-.42.52-.91A6.38,6.38,0,0,1,143,1.85a11.56,11.56,0,0,1,2.11-.63,7.49,7.49,0,0,1,2.18-.14,4.17,4.17,0,0,1,1.8.56,2.06,2.06,0,0,1,1,1.45V37.88a5.94,5.94,0,0,1-2.62,1.71,8.56,8.56,0,0,1-2.81.4,9.79,9.79,0,0,1-2.46-.37,6.2,6.2,0,0,1-1.52-.61V35.72q-2.39,3.28-4.64,4a4.73,4.73,0,0,1-4-.37,7.72,7.72,0,0,1-2.91-3.52A14.47,14.47,0,0,1,127.83,30.38Zm7.22-5a6.65,6.65,0,0,0,.87,3.68q.82,1.15,1.78.84t1.78-2.09a12.46,12.46,0,0,0,.82-5.06,3.45,3.45,0,0,0-.8-2,1.82,1.82,0,0,0-1.62-.73,2.56,2.56,0,0,0-1.73,1.31A9.26,9.26,0,0,0,135,25.41Z"/><path d="M152.11,12.38a6.31,6.31,0,0,1,2.27-1.12,9.67,9.67,0,0,1,2.91-.4,7.34,7.34,0,0,1,2.72.54,3.39,3.39,0,0,1,1.8,1.64L162,37.22a2.89,2.89,0,0,1-1.76,1.71,7.63,7.63,0,0,1-2.88.54,9.08,9.08,0,0,1-3-.49,4.35,4.35,0,0,1-2.09-1.34Zm5.63-3.47a6.39,6.39,0,0,1-3-.7A4.15,4.15,0,0,1,153,6.59a3.53,3.53,0,0,1-.4-2.09,4.22,4.22,0,0,1,.82-2.09A5.82,5.82,0,0,1,155.41.77a6.92,6.92,0,0,1,3-.77,3.08,3.08,0,0,1,1.92.68,3.72,3.72,0,0,1,1.1,1.59,5.09,5.09,0,0,1,.28,2.09,6,6,0,0,1-.52,2.11,4.39,4.39,0,0,1-1.31,1.66A3.83,3.83,0,0,1,157.73,8.91Z"/><path d="M183.94,28.36a2.44,2.44,0,0,1,1.9.54,4.05,4.05,0,0,1,1.29,1.78,4.63,4.63,0,0,1,.23,2.37A4.07,4.07,0,0,1,186,35.39a16.7,16.7,0,0,1-4.8,3.35,12.63,12.63,0,0,1-4.66,1.13,11.12,11.12,0,0,1-4.27-.68,13.24,13.24,0,0,1-6.45-5.11,12.4,12.4,0,0,1-1.66-3.66,15.57,15.57,0,0,1-.4-2.41,22.88,22.88,0,0,1-.07-3.49,25,25,0,0,1,.54-4,14.1,14.1,0,0,1,1.48-3.94,11.82,11.82,0,0,1,2.72-3.28,10.06,10.06,0,0,1,4.27-2,11.72,11.72,0,0,1,5.3-.09,10.51,10.51,0,0,1,4.2,1.95,9.38,9.38,0,0,1,2.72,3.42,9.59,9.59,0,0,1,.91,4.34,5.63,5.63,0,0,1-1.64,3.8,10.34,10.34,0,0,1-3.7,2.44,12.84,12.84,0,0,1-4.45.89,7.61,7.61,0,0,1-3.84-.8,5,5,0,0,0,1.22,3A3.88,3.88,0,0,0,176,31.31a8.46,8.46,0,0,0,3.59-.59A19,19,0,0,0,183.94,28.36Zm-10.31-8.58a1.17,1.17,0,0,0,.75,1.13,3.29,3.29,0,0,0,1.52.21,4.1,4.1,0,0,0,1.55-.45,1.36,1.36,0,0,0,.82-.89,1,1,0,0,0-.54-1.15,3.24,3.24,0,0,0-1.59-.33,4.24,4.24,0,0,0-1.71.4A1.17,1.17,0,0,0,173.63,19.78Z"/></g></g></svg>