<svg xmlns="http://www.w3.org/2000/svg" viewBox="0 0 263.18 48.23"><title>Title1</title><g id="Layer_2" data-name="Layer 2"><g id="Layer_1-2" data-name="Layer 1"><path d="M4.06,14.92,5.92,3.77Q20.41-.41,27.51,0q2.11,4.89,3.76,10,3.87-4.92,7.54-9.4,11.85.21,13.87.58-3.94,35.44-4.54,43.49a81.38,81.38,0,0,1-14.91,3.13q1.23-9.7,3.2-23.63L25.77,34a106.06,106.06,0,0,0-5.78-10q-4.17,14.7-6.38,23.41L0,45,8.75,14.92Z"/><path d="M63.12,48.23l-9.26-4.59A161.58,161.58,0,0,0,66,29.12q-4.71-7.37-9.21-14L68.12,7.46q2.36,4.68,6.19,10.92Q78.89,12.1,82.51,7.9a100.67,100.67,0,0,1,8.74,7.17Q71.3,39.74,63.12,48.23Z"/><path d="M114,.4a125.42,125.42,0,0,1-2.67,12.67,146.34,146.34,0,0,0,14.85-9.93l5.94,8.65q-8.46,5.94-16.28,11.14a98,98,0,0,0,11.53,15.75,71.8,71.8,0,0,1-12.06,8.51,139.85,139.85,0,0,1-7.93-14q-2.53,9.47-3.39,14.85a48.62,48.62,0,0,1-13.5-3.48q2.71-12.48,7.28-31.85-1.49.05-4.46.42L95.47,2.7A47.35,47.35,0,0,1,114,.4Z"/><path d="M150.35,8.22Q145.53,28,141.7,45.52q-5.7.28-12.87.23,1.93-13.57,7.61-37.18Q141.06,7.38,150.35,8.22Z"/><path d="M154.14,9.24a36.38,36.38,0,0,1,11.34-1.86q8.86.32,12.94,4.83t2.07,15.1q-1.74,6.94-5.19,10.32-7.63,7.44-16.68,7.77-9.16.58-12-.21Q148.39,37.15,154.14,9.24Zm4.94,24.12a14.41,14.41,0,0,0,7.93-2,7.76,7.76,0,0,0,3.45-6.26q.74-8-8.42-6.59Q161.05,25.15,159.08,33.36Z"/><path d="M185.92,9.24a36.38,36.38,0,0,1,11.34-1.86q8.86.32,12.94,4.83t2.07,15.1q-1.74,6.94-5.19,10.32-7.63,7.44-16.68,7.77-9.16.58-12-.21Q180.18,37.15,185.92,9.24Zm4.94,24.12a14.41,14.41,0,0,0,7.93-2,7.76,7.76,0,0,0,3.45-6.26q.74-8-8.42-6.59Q192.83,25.15,190.86,33.36Z"/><path d="M232.86,8.22Q228,28,224.21,45.52q-5.7.28-12.87.23Q213.28,32.18,219,8.57,223.58,7.38,232.86,8.22Z"/><path d="M263.18,8.52A82.72,82.72,0,0,1,260.24,19l-14.41-.16-1,4.89L255,23.56l-1.56,7.73q-3.09.21-10.07.3l-.93,4.46q7.21.16,14.34-.14-1.27,7.49-1.79,9.91-6.8.05-26,.14,3.73-15.08,7.84-37.21Q241.88,8.55,263.18,8.52Z"/></g></g></svg>